HIERARCHY
ROOT Hips
{
	OFFSET 0.000000 0.000000 0.000000
	CHANNELS 6 Xposition Yposition Zposition Xrotation Yrotation Zrotation
	JOINT LeftUpLeg_virtual
	{
		OFFSET 0.000000 0.000000 0.000000
		CHANNELS 3 Xrotation Yrotation Zrotation
		JOINT LeftUpLeg
		{
			OFFSET 13.026900 -6.336304 -1.092800
			CHANNELS 3 Xrotation Yrotation Zrotation
			JOINT LeftLeg
			{
				OFFSET 0.524474 -46.096886 9.782700
				CHANNELS 3 Xrotation Yrotation Zrotation
				JOINT LeftFoot
				{
					OFFSET -0.524474 -53.427422 -12.948200
					CHANNELS 3 Xrotation Yrotation Zrotation
					JOINT LeftToeBase
					{
						OFFSET 0.192200 -14.009700 16.364100
						CHANNELS 3 Xrotation Yrotation Zrotation
						JOINT LeftToe_End
						{
							OFFSET -1.784700 -0.561700 9.474800
							CHANNELS 3 Xrotation Yrotation Zrotation
							End Site
							{
								OFFSET 0 0 0
							}
						}
					}
				}
			}
		}
	}
	JOINT RightUpLeg_virtual
	{
		OFFSET 0.000000 0.000000 0.000000
		CHANNELS 3 Xrotation Yrotation Zrotation
		JOINT RightUpLeg
		{
			OFFSET -12.883000 -6.336304 -1.092800
			CHANNELS 3 Xrotation Yrotation Zrotation
			JOINT RightLeg
			{
				OFFSET -0.524587 -46.096825 9.782800
				CHANNELS 3 Xrotation Yrotation Zrotation
				JOINT RightFoot
				{
					OFFSET 0.524587 -53.427383 -12.948300
					CHANNELS 3 Xrotation Yrotation Zrotation
					JOINT RightToeBase
					{
						OFFSET -0.192200 -14.009700 16.364100
						CHANNELS 3 Xrotation Yrotation Zrotation
						JOINT RightToe_End
						{
							OFFSET 1.784700 -0.561700 9.474800
							CHANNELS 3 Xrotation Yrotation Zrotation
							End Site
							{
								OFFSET 0 0 0
							}
						}
					}
				}
			}
		}
	}
	JOINT Spine_virtual
	{
		OFFSET 0.000000 0.000000 0.000000
		CHANNELS 3 Xrotation Yrotation Zrotation
		JOINT Spine
		{
			OFFSET 0.072000 7.257294 -0.789700
			CHANNELS 3 Xrotation Yrotation Zrotation
			JOINT Spine1
			{
				OFFSET 0.000000 12.508769 -0.658067
				CHANNELS 3 Xrotation Yrotation Zrotation
				JOINT Spine1_split
				{
					OFFSET 0.000000 12.508769 -0.658067
					CHANNELS 3 Xrotation Yrotation Zrotation
					JOINT Spine2
					{
						OFFSET 0.000000 12.508769 -0.658067
						CHANNELS 3 Xrotation Yrotation Zrotation
						JOINT Neck_virtual
						{
							OFFSET 0.000000 0.000000 0.000000
							CHANNELS 3 Xrotation Yrotation Zrotation
							JOINT Neck
							{
								OFFSET 0.000000 14.033295 7.520400
								CHANNELS 3 Xrotation Yrotation Zrotation
								JOINT Head
								{
									OFFSET 0.000000 8.198502 5.703100
									CHANNELS 3 Xrotation Yrotation Zrotation
									JOINT HeadTop_End
									{
										OFFSET 0.000000 17.760803 13.332701
										CHANNELS 3 Xrotation Yrotation Zrotation
										End Site
										{
											OFFSET 0 0 0
										}
									}
								}
							}
						}
						JOINT LeftShoulder_virtual
						{
							OFFSET 0.000000 0.000000 0.000000
							CHANNELS 3 Xrotation Yrotation Zrotation
							JOINT LeftShoulder
							{
								OFFSET 6.292450 5.785301 -0.669000
								CHANNELS 3 Xrotation Yrotation Zrotation
								JOINT LeftShoulder_split
								{
									OFFSET 6.292450 5.785301 -0.669000
									CHANNELS 3 Xrotation Yrotation Zrotation
									JOINT LeftArm
									{
										OFFSET 13.907140 -6.093903 1.965100
										CHANNELS 3 Xrotation Yrotation Zrotation
										JOINT LeftForeArm
										{
											OFFSET 34.140198 0.000000 0.000000
											CHANNELS 3 Xrotation Yrotation Zrotation
											JOINT LeftHand
											{
												OFFSET 40.960209 0.000000 0.000000
												CHANNELS 3 Xrotation Yrotation Zrotation
												End Site
												{
													OFFSET 0 0 0
												}
											}
										}
									}
								}
							}
						}
						JOINT RightShoulder_virtual
						{
							OFFSET 0.000000 0.000000 0.000000
							CHANNELS 3 Xrotation Yrotation Zrotation
							JOINT RightShoulder
							{
								OFFSET -6.292450 5.785301 -0.669000
								CHANNELS 3 Xrotation Yrotation Zrotation
								JOINT RightShoulder_split
								{
									OFFSET -6.292450 5.785301 -0.669000
									CHANNELS 3 Xrotation Yrotation Zrotation
									JOINT RightArm
									{
										OFFSET -13.907140 -6.093903 1.965100
										CHANNELS 3 Xrotation Yrotation Zrotation
										JOINT RightForeArm
										{
											OFFSET -34.140198 0.000000 0.000000
											CHANNELS 3 Xrotation Yrotation Zrotation
											JOINT RightHand
											{
												OFFSET -40.960209 0.000000 0.000000
												CHANNELS 3 Xrotation Yrotation Zrotation
												End Site
												{
													OFFSET 0 0 0
												}
											}
										}
									}
								}
							}
						}
					}
				}
			}
		}
	}
}
MOTION
Frames: 6
Frame Time: 0.03333333
6.809689 14.177139 214.440094 0.000000 0.000000 0.000000 -95.203787 -2.047209 -1.181988 -50.822901 -33.115100 22.914909 93.115108 -6.312613 4.171184 18.818588 -6.701369 -9.942721 -6.143229 0.027591 0.278560 0.000000 0.000000 0.000000 -98.612536 0.381401 0.086951 -55.327538 6.719597 -19.976630 90.687919 6.921703 -3.038587 12.267126 -0.125316 10.741645 6.680548 0.542571 1.623223 0.000000 0.000000 0.000000 -96.457899 -1.859837 -2.912537 5.258952 -1.464888 2.517514 2.537373 -0.192783 -0.027470 0.611359 -1.134326 -0.160462 0.000000 0.000000 0.000000 1.036454 -0.643224 0.757966 10.191095 -1.681767 1.129313 20.489155 0.182509 0.403479 0.000000 0.000000 0.000000 0.098103 -0.238070 0.158527 0.116737 -15.836827 -5.236473 -4.190337 5.291977 -1.997196 66.700356 -21.330548 -39.663554 -0.764134 -39.513484 -0.801408 0.000000 0.000000 0.000000 0.418778 -0.980861 0.129228 -2.136731 4.189621 16.735475 9.684026 6.884697 -3.939579 71.045196 26.188513 23.283307 -0.074726 22.796219 0.133633 0.000000 0.000000 0.000000 
6.947832 14.091156 214.342865 0.000000 0.000000 0.000000 -95.460698 -2.347386 -1.294550 -50.973934 -33.038561 21.602782 92.556303 -5.448299 4.010042 18.113892 -6.123110 -9.140133 -6.241009 0.013781 0.191236 0.000000 0.000000 0.000000 -98.448352 -0.023050 -0.117351 -55.104501 5.661147 -20.929004 89.825218 6.839395 -3.172779 11.044254 0.213070 11.398490 6.983076 0.577030 1.654596 0.000000 0.000000 0.000000 -96.584346 -1.977773 -3.094588 5.789530 -1.473860 2.198271 2.673988 -0.194074 0.018315 0.572149 -0.978610 -0.107763 0.000000 0.000000 0.000000 1.206351 -0.611903 0.739959 10.910711 -2.264107 1.200719 22.259498 -0.803087 0.511413 0.000000 0.000000 0.000000 0.173445 -0.206472 0.249584 0.247414 -16.039750 -5.576921 -3.543219 5.683224 -2.148607 66.147459 -20.648524 -39.847624 -1.235648 -40.507984 -1.098709 0.000000 0.000000 0.000000 0.496731 -0.978235 0.114025 -2.399959 3.750091 17.294927 10.200901 6.848525 -3.971600 69.385877 25.271522 23.391779 -0.193005 22.987089 0.402698 0.000000 0.000000 0.000000 
7.056979 13.980705 214.395126 0.000000 0.000000 0.000000 -95.625490 -2.809757 -1.580652 -51.047990 -32.425244 20.786241 92.002266 -4.517755 3.757541 17.468098 -5.577403 -8.421539 -6.664756 0.001007 0.121864 0.000000 0.000000 0.000000 -98.231009 -0.413338 -0.349701 -54.522480 4.186494 -22.119436 88.597608 6.779512 -3.196408 9.696916 0.812874 12.317636 7.105549 0.575459 1.599830 0.000000 0.000000 0.000000 -96.743359 -2.106389 -3.263737 6.448157 -1.529144 1.828175 2.916301 -0.213302 0.063091 0.717931 -1.033534 -0.174734 0.000000 0.000000 0.000000 1.406000 -0.608868 0.721344 11.793491 -2.704984 1.144086 23.822397 -1.647947 0.516946 0.000000 0.000000 0.000000 0.330288 -0.219282 0.303094 0.425896 -15.871162 -5.894065 -2.706649 5.827904 -2.206167 65.420979 -19.796154 -39.565250 -2.027273 -40.984663 -1.571068 0.000000 0.000000 0.000000 0.652001 -1.001307 0.085496 -2.633217 3.413285 17.662560 10.686887 6.855313 -4.025897 67.235556 24.373834 23.916498 -0.366301 23.387905 0.652148 0.000000 0.000000 0.000000 
7.111786 13.862892 214.534592 0.000000 0.000000 0.000000 -95.669462 -3.322297 -1.990565 -51.355735 -31.505532 20.408440 91.692489 -3.813789 3.577511 17.294772 -5.438001 -8.026665 -7.289949 -0.034980 0.128495 0.000000 0.000000 0.000000 -97.982602 -0.729224 -0.602182 -53.523019 2.322091 -23.353271 86.953103 6.712988 -3.105824 8.139050 1.546692 13.409598 7.138516 0.545187 1.453180 0.000000 0.000000 0.000000 -96.847178 -2.220734 -3.428174 7.155815 -1.620813 1.490771 3.266840 -0.231225 0.108081 0.848192 -1.210877 -0.228121 0.000000 0.000000 0.000000 1.653803 -0.631278 0.713978 12.803919 -3.014218 0.963270 25.135960 -2.299977 0.443309 0.000000 0.000000 0.000000 0.578325 -0.258699 0.329269 0.650527 -15.258161 -6.322676 -1.755844 5.701328 -2.096130 64.410473 -18.832107 -38.716432 -2.916267 -41.085657 -2.050217 0.000000 0.000000 0.000000 0.914190 -1.037833 0.065751 -2.854112 3.339042 18.011567 11.006373 6.952864 -4.118660 64.898969 23.607169 24.736608 -0.524580 23.731468 0.838430 0.000000 0.000000 0.000000 
7.102739 13.800865 214.642227 0.000000 0.000000 0.000000 -95.566183 -3.728576 -2.411235 -52.101926 -30.487369 20.216511 91.736175 -3.450480 3.526714 17.610188 -5.693992 -7.908971 -7.866290 -0.095686 0.215250 0.000000 0.000000 0.000000 -97.733778 -0.927003 -0.854187 -52.076719 0.208418 -24.450699 84.853537 6.624254 -2.938643 6.355610 2.244964 14.540315 7.239329 0.506704 1.233913 0.000000 0.000000 0.000000 -96.763932 -2.330989 -3.629211 7.799274 -1.728362 1.271542 3.682748 -0.234739 0.153896 0.888689 -1.435325 -0.411306 0.000000 0.000000 0.000000 1.960738 -0.679838 0.709059 13.840221 -3.185815 0.689479 26.186564 -2.799406 0.349378 0.000000 0.000000 0.000000 0.905848 -0.306048 0.335952 0.918157 -14.076859 -7.002412 -0.709007 5.274949 -1.867970 63.236555 -17.895840 -37.267452 -3.686789 -41.203246 -2.418555 0.000000 0.000000 0.000000 1.286334 -1.086718 0.060612 -3.081494 3.616660 18.455979 11.042542 7.098402 -4.129329 62.603294 23.008346 25.597030 -0.638400 23.781129 0.953646 0.000000 0.000000 0.000000 
7.118493 13.797173 214.686615 0.000000 0.000000 0.000000 -95.253272 -3.948155 -2.753937 -53.299077 -29.607169 19.927787 92.095218 -3.293405 3.592697 18.211296 -6.121749 -7.920866 -8.139805 -0.163190 0.315921 0.000000 0.000000 0.000000 -97.406127 -1.005562 -1.113690 -50.222323 -1.946682 -25.272045 82.321565 6.484272 -2.702459 4.449495 2.768301 15.630685 7.440533 0.472396 0.992168 0.000000 0.000000 0.000000 -96.453650 -2.469495 -3.917770 8.330736 -1.827079 1.223567 4.138105 -0.223711 0.190352 0.790072 -1.592484 -0.483872 0.000000 0.000000 0.000000 2.338163 -0.745779 0.704286 14.791282 -3.256599 0.381956 27.077136 -3.156370 0.265678 0.000000 0.000000 0.000000 1.307094 -0.355012 0.320465 1.242288 -12.316920 -8.006430 0.323895 4.589803 -1.521357 61.966686 -17.152736 -35.267641 -4.248493 -41.463124 -2.657420 0.000000 0.000000 0.000000 1.763824 -1.134551 0.061217 -3.320282 4.198859 19.013124 10.779038 7.242637 -4.115842 60.483408 22.492853 26.241349 -0.707456 23.578201 1.005232 0.000000 0.000000 0.000000 
